<?xml version="1.0" encoding="UTF-8"?>
<svg width="512px" height="512px" viewBox="0 0 512 512" version="1.1" xmlns="http://www.w3.org/2000/svg" xmlns:xlink="http://www.w3.org/1999/xlink">
    <!-- Generator: Sketch 47.1 (45422) - http://www.bohemiancoding.com/sketch -->
    <title>icon</title>
    <desc>Created with Sketch.</desc>
    <defs></defs>
    <g id="Page-1" stroke="none" stroke-width="1" fill="none" fill-rule="evenodd">
        <g id="icon">
            <g>
                <circle id="Oval-Copy" fill="#0015C4" cx="256" cy="256" r="256"></circle>
                <g id="layers1" transform="translate(90.000000, 94.000000)" fill-rule="nonzero" fill="#FFFFFF">
                    <path d="M165.747854,201.136058 C163.868845,201.136058 161.993505,200.659549 160.305333,199.6992 L6.56789648,112.465047 C3.1438429,110.526022 1.0262878,106.919215 0.98591846,102.997178 C0.949219065,99.0788073 3.00071526,95.4280145 6.38072957,93.4230109 L160.885184,1.64736 C164.338597,-0.412625455 168.647106,-0.412625455 172.122539,1.62170182 L325.852635,92.0704582 C329.22898,94.0608 331.302496,97.7042618 331.280476,101.626298 C331.254786,105.544669 329.151911,109.158807 325.738867,111.112495 L171.241753,199.669876 C169.542571,200.648553 167.645212,201.136058 165.747854,201.136058 Z M33.9566552,102.667287 L165.725834,177.435229 L298.309739,101.43936 L166.54423,23.9149964 L33.9566552,102.667287 Z" id="Shape"></path>
                    <path d="M165.747854,262.547084 C163.868845,262.547084 161.993505,262.070575 160.305333,261.110225 L6.56789648,173.879738 C1.2685038,170.877731 -0.584815658,164.151622 2.42086482,158.858705 C5.42654529,153.565789 12.182904,151.707404 17.4566071,154.724073 L165.722164,238.846255 L314.754738,153.422836 C320.032111,150.395171 326.78113,152.213236 329.80883,157.491491 C332.8402,162.76608 331.01257,169.49952 325.731527,172.527185 L171.238083,261.084567 C169.542571,262.063244 167.645212,262.547084 165.747854,262.547084 Z" id="Shape"></path>
                    <path d="M165.747854,323.899462 C163.868845,323.899462 161.993505,323.422953 160.305333,322.462604 L6.56789648,235.232116 C1.2685038,232.230109 -0.584815658,225.504 2.42086482,220.211084 C5.42654529,214.925498 12.182904,213.070778 17.4566071,216.076451 L165.722164,300.198633 L314.754738,214.775215 C320.032111,211.736553 326.78113,213.56928 329.80883,218.843869 C332.8402,224.118458 331.01257,230.851898 325.731527,233.879564 L171.238083,322.436945 C169.542571,323.415622 167.645212,323.899462 165.747854,323.899462 Z" id="Shape"></path>
                </g>
            </g>
        </g>
    </g>
</svg>